<svg width="37" height="36" viewBox="0 0 37 36" fill="none" xmlns="http://www.w3.org/2000/svg">
<g opacity="0.48">
<path fill-rule="evenodd" clip-rule="evenodd" d="M8.34687 8.99988H5.0006C4.0362 8.99988 3.87421 9.44848 3.87421 9.92734C3.87421 10.7918 5.0006 15.1493 9.11889 20.9132C11.8526 24.8523 15.7456 26.9668 19.2513 26.9668C21.375 26.9668 21.6307 26.488 21.6307 25.6865V22.7076C21.6307 21.7474 21.8256 21.5861 22.4989 21.5861C22.9824 21.5861 23.8506 21.8431 25.8123 23.7333C28.065 25.9739 28.4523 26.9996 29.7053 26.9996H33.0186C33.9856 26.9996 34.4336 26.5182 34.1779 25.5908C33.8868 24.6608 32.7934 23.315 31.3784 21.7146C30.6064 20.8174 29.4496 19.8244 29.0953 19.3456C28.6118 18.7029 28.7409 18.4483 29.0953 17.8712C29.0623 17.8712 33.1148 12.1704 33.535 10.2474C33.7603 9.54425 33.535 9.03012 32.5377 9.03012H29.2243C28.3865 9.03012 28.0018 9.47873 27.7765 9.9601C27.7765 9.9601 26.0704 14.0606 23.6911 16.7169C22.9191 17.4856 22.5647 17.7427 22.1471 17.7427C21.9218 17.7427 21.6307 17.4856 21.6307 16.7825V10.2172C21.6307 9.38296 21.375 8.99988 20.6663 8.99988H15.4545C14.9407 8.99988 14.6192 9.38296 14.6192 9.76856C14.6192 10.5675 15.8089 10.7615 15.938 13.0021V17.8712C15.938 18.9272 15.7456 19.1213 15.3254 19.1213C14.2016 19.1213 11.4653 14.988 9.8251 10.2802C9.50363 9.35019 9.18217 8.99988 8.34687 8.99988V8.99988Z" fill="#C0BCF0"/>
</g>
</svg>
