<svg width="37" height="36" viewBox="0 0 37 36" fill="none" xmlns="http://www.w3.org/2000/svg">
<g opacity="0.48">
<path fill-rule="evenodd" clip-rule="evenodd" d="M8.49609 27.7498H14.121V12.75H8.49609V27.7498Z" fill="#C0BCF0"/>
<path fill-rule="evenodd" clip-rule="evenodd" d="M30.9972 27.7498V19.723C30.9972 15.7812 30.0972 12.75 25.2276 12.75C22.887 12.75 21.3166 13.9641 20.6753 15.1149H20.6094V13.1138H15.9974V27.7498H20.8022V20.5109C20.8022 18.6009 21.1843 16.7514 23.6879 16.7514C26.1564 16.7514 26.188 18.935 26.188 20.6319V27.7498H30.9972Z" fill="#C0BCF0"/>
<path fill-rule="evenodd" clip-rule="evenodd" d="M11.3099 10.8747C12.8611 10.8747 14.121 9.61565 14.121 8.06231C14.121 6.5098 12.8611 5.24976 11.3099 5.24976C9.75227 5.24976 8.49609 6.5098 8.49609 8.06231C8.49609 9.61565 9.75227 10.8747 11.3099 10.8747Z" fill="#C0BCF0"/>
</g>
</svg>
