<svg width="37" height="36" viewBox="0 0 37 36" fill="none" xmlns="http://www.w3.org/2000/svg">
<g opacity="0.48">
<path fill-rule="evenodd" clip-rule="evenodd" d="M11.4514 17.7075C10.5218 17.1872 9.4517 16.5881 8.255 15.9174C7.35079 15.4111 7.10611 14.31 7.36908 13.6533C7.63345 12.998 8.24937 12.496 9.01718 12.309C13.8448 11.139 22.6674 8.99871 27.3797 7.85685C28.0238 7.70076 28.7831 7.77389 29.2556 8.18591C29.8744 8.7259 29.7562 9.5598 29.5776 10.1223C28.2684 14.2341 25.9046 21.6646 24.563 25.8791C24.3493 26.5498 23.8149 27.1545 23.0766 27.3851C21.9657 27.7212 21.1009 27.0294 20.6509 26.457C19.772 25.3377 18.9606 24.3013 18.2589 23.4013L13.8757 26.7102C13.4173 27.0561 12.8027 27.1123 12.2895 26.8564C11.7748 26.6005 11.4514 26.0759 11.4514 25.5022V17.7075ZM16.0385 19.9658C16.2002 19.6142 16.4351 19.2992 16.729 19.0447C17.9229 18.0097 21.2528 15.1199 23.4367 13.2257C23.552 13.1259 23.5731 12.9557 23.4873 12.8292C23.4001 12.704 23.2342 12.6632 23.0992 12.735C20.3838 14.1876 16.0906 16.484 14.524 17.3235C14.1528 17.5218 13.9137 17.9 13.894 18.3205C13.8364 19.5074 13.7168 21.9964 13.6367 23.6782C13.6283 23.8371 13.7337 23.9778 13.8884 24.0143C14.0417 24.0523 14.1992 23.9749 14.2653 23.8315C14.8503 22.5589 15.6434 20.8292 16.0385 19.9658Z" fill="#C0BCF0"/>
</g>
</svg>
