<svg width="37" height="36" viewBox="0 0 37 36" fill="none" xmlns="http://www.w3.org/2000/svg">
<path fill-rule="evenodd" clip-rule="evenodd" d="M6.62335 17.6246C6.62335 14.8637 7.11975 12.4282 7.8726 10.9914C8.23253 10.1186 8.84141 9.37626 9.61076 8.85287C10.9905 7.84507 14.5058 7.12671 18.621 7.12671C22.7362 7.12671 26.2515 7.84507 27.6312 8.85287C28.4005 9.37626 29.0094 10.1186 29.3693 10.9914C30.1222 12.4282 30.6186 14.8637 30.6186 17.6246C30.6186 20.3856 30.1222 22.8211 29.3693 24.2578C29.0094 25.1306 28.4005 25.873 27.6312 26.3964C26.2515 27.4042 22.7362 28.1225 18.621 28.1225C14.5058 28.1225 10.9905 27.4042 9.61076 26.3964C8.84141 25.873 8.23253 25.1306 7.8726 24.2578C7.11975 22.8211 6.62335 20.3856 6.62335 17.6246ZM16.8708 21.9692C16.7403 22.0667 16.5784 22.1237 16.4029 22.1237C15.9725 22.1237 15.6216 21.7728 15.6216 21.3423V13.9068C15.6216 13.4764 15.9725 13.1255 16.4029 13.1255C16.5784 13.1255 16.7403 13.1825 16.8708 13.2799L22.7661 16.9437L22.7631 16.9482C22.9791 17.0967 23.1201 17.3441 23.1201 17.6246C23.1201 17.905 22.9791 18.1525 22.7631 18.3009L22.7661 18.3054L16.8708 21.9692Z" fill="#67639D"/>
</svg>
