<svg width="61" height="61" viewBox="0 0 61 61" fill="none" xmlns="http://www.w3.org/2000/svg">
<path d="M16 20.8868C19.094 19.1004 22.906 19.1004 26 20.8868L34.1865 25.6132C37.2805 27.3996 39.1865 30.7008 39.1865 34.2735V43.7265C39.1865 47.2992 37.2805 50.6004 34.1865 52.3868L26 57.1132C22.906 58.8996 19.094 58.8996 16 57.1132L7.81347 52.3868C4.71946 50.6004 2.81347 47.2992 2.81347 43.7265V34.2735C2.81347 30.7008 4.71946 27.3996 7.81347 25.6132L16 20.8868Z" fill="url(#paint0_linear)"/>
<path d="M48 12L22 12C18.6863 12 16 14.6863 16 18C16 21.3137 18.6863 24 22 24L25 24L48 24C51.3137 24 54 21.3137 54 18C54 14.6863 51.3137 12 48 12Z" stroke="#161251" stroke-width="1.8" stroke-linecap="round"/>
<path d="M36.1875 39.9C36.6846 39.9 37.0875 39.4971 37.0875 39C37.0875 38.5029 36.6846 38.1 36.1875 38.1L36.1875 39.9ZM41.6875 38.1C41.1904 38.1 40.7875 38.5029 40.7875 39C40.7875 39.4971 41.1904 39.9 41.6875 39.9L41.6875 38.1ZM33 29.9L49 29.9L49 28.1L33 28.1L33 29.9ZM36.1875 38.1L33 38.1L33 39.9L36.1875 39.9L36.1875 38.1ZM49 38.1L41.6875 38.1L41.6875 39.9L49 39.9L49 38.1ZM28.9 34C28.9 31.7356 30.7356 29.9 33 29.9L33 28.1C29.7415 28.1 27.1 30.7415 27.1 34L28.9 34ZM27.1 34C27.1 37.2585 29.7415 39.9 33 39.9L33 38.1C30.7356 38.1 28.9 36.2644 28.9 34L27.1 34ZM53.1 34C53.1 36.2644 51.2644 38.1 49 38.1L49 39.9C52.2585 39.9 54.9 37.2585 54.9 34L53.1 34ZM54.9 34C54.9 30.7415 52.2585 28.1 49 28.1L49 29.9C51.2644 29.9 53.1 31.7356 53.1 34L54.9 34Z" fill="#161251" fill-opacity="0.98"/>
<defs>
<linearGradient id="paint0_linear" x1="42" y1="60" x2="-8.50013" y2="23.7688" gradientUnits="userSpaceOnUse">
<stop stop-color="#0087FC" stop-opacity="0.48"/>
<stop offset="1" stop-color="#0087FC" stop-opacity="0.2"/>
</linearGradient>
</defs>
</svg>
