<svg width="52" height="52" viewBox="0 0 52 52" fill="none" xmlns="http://www.w3.org/2000/svg">
<circle cx="26" cy="26" r="26" fill="black" fill-opacity="0.1"/>
<path d="M11.9559 20.76C11.9559 20.5573 12.0253 20.3867 12.1639 20.248C12.3026 20.1093 12.4733 20.04 12.6759 20.04C12.8786 20.04 13.0493 20.1093 13.1879 20.248C13.3266 20.3867 13.3959 20.5573 13.3959 20.76C13.3959 20.9627 13.3266 21.1333 13.1879 21.272C13.0493 21.4107 12.8786 21.48 12.6759 21.48C12.4733 21.48 12.3026 21.4107 12.1639 21.272C12.0253 21.1333 11.9559 20.9627 11.9559 20.76ZM12.1159 23.32H13.2359V31H12.1159V23.32ZM22.2834 29.56C22.0381 29.8587 21.7554 30.1253 21.4354 30.36C21.1581 30.5627 20.8221 30.7493 20.4274 30.92C20.0328 31.08 19.5848 31.16 19.0834 31.16C18.5608 31.16 18.0648 31.0587 17.5954 30.856C17.1368 30.6427 16.7314 30.36 16.3794 30.008C16.0274 29.6453 15.7501 29.224 15.5474 28.744C15.3448 28.2533 15.2434 27.7253 15.2434 27.16C15.2434 26.6053 15.3448 26.0827 15.5474 25.592C15.7501 25.1013 16.0274 24.68 16.3794 24.328C16.7314 23.9653 17.1368 23.6827 17.5954 23.48C18.0648 23.2667 18.5608 23.16 19.0834 23.16C19.5848 23.16 20.0274 23.24 20.4114 23.4C20.7954 23.56 21.1208 23.736 21.3874 23.928C21.6968 24.152 21.9688 24.4027 22.2034 24.68L21.4034 25.48C21.2328 25.2453 21.0354 25.032 20.8114 24.84C20.6194 24.68 20.3741 24.536 20.0754 24.408C19.7874 24.2693 19.4568 24.2 19.0834 24.2C18.7208 24.2 18.3741 24.2747 18.0434 24.424C17.7234 24.5733 17.4354 24.7813 17.1794 25.048C16.9341 25.3147 16.7368 25.6293 16.5874 25.992C16.4381 26.3547 16.3634 26.744 16.3634 27.16C16.3634 27.576 16.4381 27.9653 16.5874 28.328C16.7368 28.6907 16.9341 29.0053 17.1794 29.272C17.4354 29.5387 17.7234 29.7467 18.0434 29.896C18.3741 30.0453 18.7208 30.12 19.0834 30.12C19.4568 30.12 19.7928 30.056 20.0914 29.928C20.3901 29.7893 20.6461 29.64 20.8594 29.48C21.1048 29.288 21.3128 29.0747 21.4834 28.84L22.2834 29.56ZM27.2416 31.16C26.6976 31.16 26.1856 31.0587 25.7056 30.856C25.2362 30.6427 24.8256 30.36 24.4736 30.008C24.1216 29.6453 23.8389 29.224 23.6256 28.744C23.4229 28.2533 23.3216 27.7253 23.3216 27.16C23.3216 26.6053 23.4229 26.0827 23.6256 25.592C23.8389 25.1013 24.1216 24.68 24.4736 24.328C24.8256 23.9653 25.2362 23.6827 25.7056 23.48C26.1856 23.2667 26.6976 23.16 27.2416 23.16C27.7856 23.16 28.2922 23.2667 28.7616 23.48C29.2416 23.6827 29.6576 23.9653 30.0096 24.328C30.3616 24.68 30.6389 25.1013 30.8416 25.592C31.0549 26.0827 31.1616 26.6053 31.1616 27.16C31.1616 27.7253 31.0549 28.2533 30.8416 28.744C30.6389 29.224 30.3616 29.6453 30.0096 30.008C29.6576 30.36 29.2416 30.6427 28.7616 30.856C28.2922 31.0587 27.7856 31.16 27.2416 31.16ZM27.2416 30.12C27.6256 30.12 27.9829 30.0453 28.3136 29.896C28.6549 29.7467 28.9536 29.5387 29.2096 29.272C29.4656 29.0053 29.6682 28.6907 29.8176 28.328C29.9669 27.9653 30.0416 27.576 30.0416 27.16C30.0416 26.744 29.9669 26.3547 29.8176 25.992C29.6682 25.6293 29.4656 25.3147 29.2096 25.048C28.9536 24.7813 28.6549 24.5733 28.3136 24.424C27.9829 24.2747 27.6256 24.2 27.2416 24.2C26.8576 24.2 26.4949 24.2747 26.1536 24.424C25.8229 24.5733 25.5296 24.7813 25.2736 25.048C25.0176 25.3147 24.8149 25.6293 24.6656 25.992C24.5162 26.3547 24.4416 26.744 24.4416 27.16C24.4416 27.576 24.5162 27.9653 24.6656 28.328C24.8149 28.6907 25.0176 29.0053 25.2736 29.272C25.5296 29.528 25.8229 29.736 26.1536 29.896C26.4949 30.0453 26.8576 30.12 27.2416 30.12ZM33.1628 23.32H34.2828V24.44C34.4428 24.2053 34.6455 23.992 34.8908 23.8C35.1041 23.64 35.3601 23.496 35.6588 23.368C35.9681 23.2293 36.3361 23.16 36.7628 23.16C37.2215 23.16 37.6428 23.24 38.0268 23.4C38.4108 23.5493 38.7361 23.768 39.0028 24.056C39.2801 24.3333 39.4935 24.6747 39.6428 25.08C39.8028 25.4853 39.8828 25.9387 39.8828 26.44V31H38.7628V26.44C38.7628 25.7573 38.5655 25.2133 38.1708 24.808C37.7868 24.4027 37.2908 24.2 36.6828 24.2C36.3415 24.2 36.0215 24.264 35.7228 24.392C35.4348 24.5093 35.1841 24.68 34.9708 24.904C34.7575 25.128 34.5868 25.4 34.4588 25.72C34.3415 26.0293 34.2828 26.376 34.2828 26.76V31H33.1628V23.32Z" fill="#303030" fill-opacity="0.8"/>
</svg>
