<svg width="18" height="18" viewBox="0 0 18 18" fill="none" xmlns="http://www.w3.org/2000/svg">
<path fill-rule="evenodd" clip-rule="evenodd" d="M9 0C13.9664 0 18 4.03355 18 9C18 13.9664 13.9664 18 9 18C4.03355 18 0 13.9664 0 9C0 4.03355 4.03355 0 9 0ZM9.0006 7.39656L6.95566 5.35162C6.514 4.90996 5.79517 4.90996 5.35238 5.35162C4.91072 5.79441 4.91072 6.51324 5.35238 6.9549L7.39732 8.99984L5.36027 11.0369C4.9186 11.4786 4.9186 12.1974 5.36027 12.6402C5.80306 13.0818 6.52188 13.0818 6.96355 12.6402L9.0006 10.6031L11.0455 12.6481C11.4872 13.0897 12.206 13.0897 12.6488 12.6481C13.0905 12.2053 13.0905 11.4864 12.6488 11.0448L10.6039 8.99984L12.6409 6.96278C13.0826 6.52112 13.0826 5.80229 12.6409 5.3595C12.1981 4.91784 11.4793 4.91784 11.0377 5.3595L9.0006 7.39656Z" fill="#DB242D"/>
</svg>
