<svg width="65" height="67" viewBox="0 0 65 67" fill="none" xmlns="http://www.w3.org/2000/svg">
<path d="M31.3981 23.0564C34.2108 23.0787 36.805 24.5765 38.2307 27.0012L41.0843 31.8543L43.8604 36.7521C45.2474 39.1991 45.2474 42.1947 43.8604 44.6417L41.0843 49.5396L38.2307 54.3926C36.805 56.8173 34.2108 58.3151 31.3981 58.3374L25.7684 58.3822L20.1387 58.3374C17.3261 58.3151 14.7318 56.8173 13.3061 54.3926L10.4525 49.5396L7.67641 44.6417C6.28945 42.1947 6.28945 39.1991 7.67641 36.7521L10.4525 31.8543L13.3061 27.0012C14.7318 24.5765 17.3261 23.0787 20.1387 23.0564L25.7684 23.0116L31.3981 23.0564Z" fill="url(#paint0_linear)"/>
<path d="M34.1471 33.5452L37.8974 36.8541C38.6429 37.5118 39.7583 37.5221 40.5158 36.8783L49.5981 29.1586L58.3019 21.7605C59.2086 20.9898 59.2459 19.6028 58.382 18.7845L52.5945 13.3027C51.8231 12.5721 50.6151 12.5721 49.8438 13.3027L40.6166 22.0426C39.8271 22.7904 38.5848 22.7703 37.8198 21.9975L29.3922 13.4828C28.6447 12.7276 27.4372 12.6887 26.6427 13.3942L20.6895 18.6806C19.7916 19.4779 19.7938 20.8813 20.6943 21.6758L24.049 24.6357" stroke="#161251" stroke-width="2" stroke-linecap="round"/>
<defs>
<linearGradient id="paint0_linear" x1="33.2089" y1="68.4654" x2="8.41007" y2="13.6504" gradientUnits="userSpaceOnUse">
<stop stop-color="#0087FC" stop-opacity="0.48"/>
<stop offset="1" stop-color="#0087FC" stop-opacity="0.2"/>
</linearGradient>
</defs>
</svg>
