<svg width="18" height="18" viewBox="0 0 18 18" fill="none" xmlns="http://www.w3.org/2000/svg">
<path fill-rule="evenodd" clip-rule="evenodd" d="M9 0C13.9669 0 18 4.03312 18 9C18 13.9669 13.9669 18 9 18C4.03312 18 0 13.9669 0 9C0 4.03312 4.03312 0 9 0ZM12.246 6.09975C12.4057 6.11212 12.5576 6.15037 12.7005 6.22462C12.7938 6.27412 12.8805 6.336 12.957 6.40912C13.254 6.69262 13.3732 7.12687 13.2641 7.52287C13.2168 7.69387 13.128 7.84575 13.0121 7.97962C11.6767 9.37912 10.3087 10.746 8.91034 12.0814C8.81809 12.1612 8.71909 12.2299 8.60659 12.2794C8.31971 12.4065 7.98559 12.4065 7.69871 12.2794C7.58621 12.2299 7.48721 12.1612 7.39496 12.0814C6.60296 11.3242 5.82671 10.5502 5.07071 9.75712C4.95484 9.62325 4.86596 9.47137 4.81871 9.29925C4.79059 9.198 4.77709 9.09225 4.77821 8.9865C4.78271 8.55787 5.04034 8.15962 5.42959 7.97962C5.55784 7.92 5.69621 7.88512 5.83684 7.87725C5.97746 7.86825 6.11921 7.88737 6.25309 7.93125C6.42296 7.98637 6.56921 8.082 6.69859 8.20462L8.15321 9.65925C9.24221 8.56912 10.3076 7.45425 11.4225 6.39112C11.463 6.35625 11.463 6.35625 11.5035 6.32362C11.562 6.282 11.6205 6.24487 11.6835 6.21337C11.8117 6.15037 11.9467 6.11662 12.0873 6.102C12.1413 6.09862 12.1931 6.0975 12.246 6.09975Z" fill="#00B08E"/>
</svg>
