<svg width="60" height="60" viewBox="0 0 60 60" fill="none" xmlns="http://www.w3.org/2000/svg">
<path d="M21.2599 57.2501C31.4827 57.2501 39.7698 48.9629 39.7698 38.7401C39.7698 28.5174 31.4827 20.2302 21.2599 20.2302C11.0372 20.2302 2.75 28.5174 2.75 38.7401C2.75 48.9629 11.0372 57.2501 21.2599 57.2501Z" fill="url(#paint0_linear)"/>
<path d="M28.0613 23.435H24.9192C24.1511 23.435 23.5227 22.8066 23.5227 22.0386V18.8965C23.5227 18.1284 24.1511 17.5 24.9192 17.5H28.0613C28.8293 17.5 29.4577 18.1284 29.4577 18.8965V22.0386C29.4577 22.8066 28.8293 23.435 28.0613 23.435Z" stroke="#161251" stroke-width="1.8" stroke-linecap="round"/>
<path d="M32.6998 20.653H50.505" stroke="#161251" stroke-width="1.8" stroke-linecap="round"/>
<path d="M28.0613 35.2977H24.9192C24.1511 35.2977 23.5227 34.6693 23.5227 33.9012V30.7592C23.5227 29.9911 24.1511 29.3627 24.9192 29.3627H28.0613C28.8293 29.3627 29.4577 29.9911 29.4577 30.7592V33.9012C29.4577 34.6693 28.8293 35.2977 28.0613 35.2977Z" stroke="#161251" stroke-width="1.8" stroke-linecap="round"/>
<path d="M32.6998 32.5156H50.505" stroke="#161251" stroke-width="1.8" stroke-linecap="round"/>
<path d="M28.0613 47.1604H24.9192C24.1511 47.1604 23.5227 46.532 23.5227 45.7639V42.6218C23.5227 41.8538 24.1511 41.2253 24.9192 41.2253H28.0613C28.8293 41.2253 29.4577 41.8538 29.4577 42.6218V45.7639C29.4577 46.539 28.8293 47.1604 28.0613 47.1604Z" stroke="#161251" stroke-width="1.8" stroke-linecap="round"/>
<path d="M32.6998 44.3783H50.505" stroke="#161251" stroke-width="1.8" stroke-linecap="round"/>
<defs>
<linearGradient id="paint0_linear" x1="2.75" y1="38.7419" x2="39.7707" y2="38.7419" gradientUnits="userSpaceOnUse">
<stop stop-color="#0087FC" stop-opacity="0.48"/>
<stop offset="1" stop-color="#0087FC" stop-opacity="0.2"/>
</linearGradient>
</defs>
</svg>
