<svg width="49" height="58" viewBox="0 0 49 58" fill="none" xmlns="http://www.w3.org/2000/svg">
<path d="M32.4767 29.4345C36.5853 31.7219 36.5853 37.6318 32.4767 39.9192L11.8914 51.3796C6.55904 54.3483 -1.31549e-05 50.4929 -1.28881e-05 44.3899L-1.2039e-05 24.9638C-1.17722e-05 18.8608 6.55904 15.0054 11.8914 17.9741L32.4767 29.4345Z" fill="url(#paint0_linear)"/>
<path d="M20.9465 38.8718L18.8736 40.0259C13.5412 42.9946 6.98216 39.1391 6.98216 33.0361L6.98217 13.6101C6.98217 7.50702 13.5412 3.65162 18.8736 6.62032L39.449 18.0753C43.5596 20.3638 43.557 26.2776 39.4443 28.5625L30.921 33.2977" stroke="#161251" stroke-width="2" stroke-linecap="round"/>
<defs>
<linearGradient id="paint0_linear" x1="-1.29202e-05" y1="57.9999" x2="41.4289" y2="6.13928" gradientUnits="userSpaceOnUse">
<stop stop-color="#0087FC" stop-opacity="0.48"/>
<stop offset="1" stop-color="#0087FC" stop-opacity="0.2"/>
</linearGradient>
</defs>
</svg>
