<svg width="60" height="60" viewBox="0 0 60 60" fill="none" xmlns="http://www.w3.org/2000/svg">
<path d="M26.6145 16.1267C33.2557 16.1795 39.3812 19.7161 42.7476 25.4411C46.0224 31.219 46.0224 38.2922 42.7476 44.07C39.3812 49.795 33.2557 53.3316 26.6145 53.3844C19.9733 53.3316 13.8477 49.7951 10.4814 44.07C7.20655 38.2922 7.20655 31.219 10.4814 25.4411C13.8477 19.7161 19.9733 16.1795 26.6145 16.1267Z" fill="url(#paint0_linear)"/>
<path d="M26.3994 45.1185L35.552 36.2097C36.3406 35.4421 36.3609 34.1817 35.5975 33.3891L26.2714 23.706" stroke="#161251" stroke-width="1.8" stroke-linecap="round"/>
<path d="M17.5782 13L8.42567 21.9089C7.63711 22.6764 7.61677 23.9369 8.38016 24.7295L17.7063 34.4125" stroke="#161251" stroke-width="1.8" stroke-linecap="round"/>
<defs>
<linearGradient id="paint0_linear" x1="45.2037" y1="53.3844" x2="0.436276" y2="21.3345" gradientUnits="userSpaceOnUse">
<stop stop-color="#0087FC" stop-opacity="0.48"/>
<stop offset="1" stop-color="#0087FC" stop-opacity="0.2"/>
</linearGradient>
</defs>
</svg>
