<svg width="60" height="60" viewBox="0 0 60 60" fill="none" xmlns="http://www.w3.org/2000/svg">
<path d="M35.2269 31.6199C38.9244 33.7492 38.9244 39.2508 35.2269 41.3801L16.7015 52.0488C11.9027 54.8124 6 51.2234 6 45.542L6 27.458C6 21.7766 11.9027 18.1876 16.7015 20.9512L35.2269 31.6199Z" fill="url(#paint0_linear)"/>
<path d="M24.6667 40L20.9021 42.0804C16.9032 44.2904 12 41.3979 12 36.829L12 15.171C12 10.6021 16.9032 7.70964 20.9021 9.91959L40.4874 20.743C44.62 23.0268 44.6174 28.9684 40.4827 31.2485L33.7143 34.9811" stroke="#161251" stroke-width="1.8" stroke-linecap="round"/>
<defs>
<linearGradient id="paint0_linear" x1="38" y1="53" x2="-1.27286" y2="25.6776" gradientUnits="userSpaceOnUse">
<stop stop-color="#0087FC" stop-opacity="0.48"/>
<stop offset="1" stop-color="#0087FC" stop-opacity="0.2"/>
</linearGradient>
</defs>
</svg>
