<svg width="65" height="66" viewBox="0 0 65 66" fill="none" xmlns="http://www.w3.org/2000/svg">
<path d="M31.6623 2.23591C34.1093 0.848953 37.1049 0.848953 39.5519 2.23591L47.9868 7.01684L56.3447 11.9313C58.7693 13.3569 60.2671 15.9512 60.2895 18.7638L60.3666 28.4592L60.2895 38.1545C60.2671 40.9672 58.7693 43.5614 56.3447 44.9871L47.9868 49.9015L39.5519 54.6825C37.1049 56.0694 34.1093 56.0694 31.6623 54.6825L23.2273 49.9015L14.8695 44.9871C12.4448 43.5614 10.947 40.9672 10.9247 38.1545L10.8476 28.4592L10.9247 18.7638C10.947 15.9512 12.4448 13.3569 14.8695 11.9313L23.2273 7.01684L31.6623 2.23591Z" fill="url(#paint0_linear)"/>
<path d="M23.2724 22.3113H11C5.47715 22.3113 1 26.7884 1 32.3113V55.0001C1 60.5229 5.47714 65.0001 11 65.0001H33.6888C39.2116 65.0001 43.6888 60.5229 43.6888 55.0001V41.2841" stroke="#161251" stroke-width="2" stroke-linecap="round"/>
<defs>
<linearGradient id="paint0_linear" x1="64.0663" y1="56.9184" x2="-4.37148" y2="7.81785" gradientUnits="userSpaceOnUse">
<stop stop-color="#0087FC" stop-opacity="0.48"/>
<stop offset="1" stop-color="#0087FC" stop-opacity="0.2"/>
</linearGradient>
</defs>
</svg>
