<svg width="65" height="54" viewBox="0 0 65 54" fill="none" xmlns="http://www.w3.org/2000/svg">
<path d="M24.6799 54.0002C38.3102 54.0002 49.3598 42.9506 49.3598 29.3203C49.3598 15.6899 38.3102 4.64038 24.6799 4.64038C11.0496 4.64038 0 15.6899 0 29.3203C0 42.9506 11.0496 54.0002 24.6799 54.0002Z" fill="url(#paint0_linear)"/>
<path d="M33.7483 8.91339H29.5589C28.5348 8.91339 27.6969 8.0755 27.6969 7.05142V2.86197C27.6969 1.83789 28.5348 1 29.5589 1H33.7483C34.7724 1 35.6103 1.83789 35.6103 2.86197V7.05142C35.6103 8.0755 34.7724 8.91339 33.7483 8.91339Z" stroke="#161251" stroke-width="1.8" stroke-linecap="round"/>
<path d="M39.933 5.2041H63.6732" stroke="#161251" stroke-width="1.8" stroke-linecap="round"/>
<path d="M33.7483 24.7303H29.5589C28.5348 24.7303 27.6969 23.8924 27.6969 22.8683V18.6789C27.6969 17.6548 28.5348 16.8169 29.5589 16.8169H33.7483C34.7724 16.8169 35.6103 17.6548 35.6103 18.6789V22.8683C35.6103 23.8924 34.7724 24.7303 33.7483 24.7303Z" stroke="#161251" stroke-width="1.8" stroke-linecap="round"/>
<path d="M39.933 21.021H63.6732" stroke="#161251" stroke-width="1.8" stroke-linecap="round"/>
<path d="M33.7483 40.5472H29.5589C28.5348 40.5472 27.6969 39.7093 27.6969 38.6852V34.4958C27.6969 33.4717 28.5348 32.6338 29.5589 32.6338H33.7483C34.7724 32.6338 35.6103 33.4717 35.6103 34.4958V38.6852C35.6103 39.7186 34.7724 40.5472 33.7483 40.5472Z" stroke="#161251" stroke-width="1.8" stroke-linecap="round"/>
<path d="M39.933 36.8379H63.6732" stroke="#161251" stroke-width="1.8" stroke-linecap="round"/>
<defs>
<linearGradient id="paint0_linear" x1="0" y1="29.3226" x2="49.3609" y2="29.3226" gradientUnits="userSpaceOnUse">
<stop stop-color="#0087FC" stop-opacity="0.48"/>
<stop offset="1" stop-color="#0087FC" stop-opacity="0.2"/>
</linearGradient>
</defs>
</svg>
