<svg width="60" height="60" viewBox="0 0 60 60" fill="none" xmlns="http://www.w3.org/2000/svg">
<path d="M26.5414 10.6769C28.3767 9.63671 30.6234 9.63671 32.4586 10.6769L37.5475 13.5613L42.5899 16.5262C44.4084 17.5955 45.5317 19.5412 45.5485 21.6507L45.595 27.5L45.5485 33.3493C45.5317 35.4588 44.4084 37.4045 42.5899 38.4738L37.5475 41.4387L32.4586 44.3231C30.6234 45.3633 28.3766 45.3633 26.5414 44.3231L21.4525 41.4387L16.4101 38.4738C14.5916 37.4045 13.4683 35.4588 13.4515 33.3493L13.405 27.5L13.4515 21.6507C13.4683 19.5412 14.5916 17.5955 16.4101 16.5262L21.4525 13.5613L26.5414 10.6769Z" fill="url(#paint0_linear)"/>
<path d="M22.1304 23H15C10.5817 23 7 26.5817 7 31V44C7 48.4183 10.5817 52 15 52H28C32.4183 52 36 48.4183 36 44V35.8889" stroke="#161251" stroke-width="1.8" stroke-linecap="round"/>
<defs>
<linearGradient id="paint0_linear" x1="48" y1="46" x2="3.51179" y2="14.082" gradientUnits="userSpaceOnUse">
<stop stop-color="#0087FC" stop-opacity="0.48"/>
<stop offset="1" stop-color="#0087FC" stop-opacity="0.2"/>
</linearGradient>
</defs>
</svg>
