<svg width="60" height="60" viewBox="0 0 60 60" fill="none" xmlns="http://www.w3.org/2000/svg">
<circle cx="18.2727" cy="36.7259" r="15.2727" fill="url(#paint0_linear)"/>
<path d="M17.4762 43.8257L19.189 46.3944C20.9673 49.0613 24.8931 49.0511 26.6714 46.3842V46.3842C27.6973 44.8457 29.5681 44.0938 31.3721 44.5001L32.3282 44.7154C35.1922 45.3604 37.7077 42.7147 36.9192 39.8868V39.8868C36.4319 38.1394 37.2219 36.2866 38.8191 35.4264V35.4264C41.546 33.9579 41.546 30.0421 38.8191 28.5736V28.5736C37.2219 27.7134 36.4319 25.8606 36.9192 24.1132V24.1132C37.7077 21.2853 35.1922 18.6396 32.3282 19.2846L31.3721 19.4999C29.5681 19.9062 27.6973 19.1543 26.6714 17.6158V17.6158C24.8931 14.9489 20.9673 14.9387 19.189 17.6056L17.4762 20.1743" stroke="#161251" stroke-width="1.8" stroke-linecap="round"/>
<path d="M28.5587 32.0011C28.5587 28.5731 25.7678 25.7942 22.325 25.7942C20.7284 25.7942 19.272 26.3918 18.1691 27.3747C16.8938 28.5112 16.0912 30.1628 16.0912 32.0011C16.0912 35.4291 18.8821 38.208 22.325 38.208" stroke="#161251" stroke-width="1.8" stroke-linecap="round"/>
<defs>
<linearGradient id="paint0_linear" x1="33.5455" y1="51.9986" x2="-3.18191" y2="25.6486" gradientUnits="userSpaceOnUse">
<stop stop-color="#0087FC" stop-opacity="0.48"/>
<stop offset="1" stop-color="#0087FC" stop-opacity="0.2"/>
</linearGradient>
</defs>
</svg>
