<svg width="62" height="59" viewBox="0 0 62 59" fill="none" xmlns="http://www.w3.org/2000/svg">
<path d="M44.8182 14.5601C44.8182 35.0517 26.8909 47.4545 22.4091 47.4545C17.9273 47.4545 0 35.0517 0 14.5601C0 2.64722 15.6864 0 22.4091 0C29.1318 0 44.8182 2.64722 44.8182 14.5601Z" fill="url(#paint0_linear)"/>
<path d="M13.1818 21.4506C13.1818 16.1662 15.8289 12.5228 19.4625 10.0522C21.9667 8.34959 24.9393 7.20405 27.8369 6.46243C31.2665 5.58463 34.591 5.27271 36.9091 5.27271C44.0272 5.27271 60.6363 8.21406 60.6363 21.4506C60.6363 44.2191 41.6545 58 36.9091 58C34.1712 58 26.6944 53.4127 20.8583 45.1586C20.0504 44.0161 19.274 42.8033 18.546 41.5227" stroke="#161251" stroke-width="2" stroke-linecap="round"/>
<path d="M48.7728 26.5435C48.7728 37.9278 39.2819 44.8182 36.9092 44.8182C35.5402 44.8182 31.8018 42.5246 28.8838 38.3976C28.4799 37.8263 28.0917 37.2199 27.7277 36.5796C27.2594 35.756 26.8312 34.8764 26.461 33.9432C25.5944 31.7587 25.0456 29.281 25.0456 26.5435C25.0456 23.9014 26.3691 22.0796 28.1859 20.8443C29.438 19.993 30.9243 19.4203 32.3731 19.0495C34.0879 18.6106 35.7502 18.4546 36.9092 18.4546C40.4683 18.4546 48.7728 19.9253 48.7728 26.5435Z" stroke="#161251" stroke-width="1.8"/>
<defs>
<linearGradient id="paint0_linear" x1="44.8182" y1="47.4545" x2="-11.124" y2="9.54866" gradientUnits="userSpaceOnUse">
<stop stop-color="#0087FC" stop-opacity="0.48"/>
<stop offset="1" stop-color="#0087FC" stop-opacity="0.2"/>
</linearGradient>
</defs>
</svg>
