<svg width="66" height="64" viewBox="0 0 66 64" fill="none" xmlns="http://www.w3.org/2000/svg">
<circle cx="24.4364" cy="39.5637" r="24.4364" fill="url(#paint0_linear)"/>
<path d="M21.2164 50.921L23.957 55.031C26.8022 59.2981 33.0835 59.2818 35.9288 55.0148V55.0148C37.5702 52.5532 40.5635 51.3501 43.4499 52.0001L44.9796 52.3446C49.5621 53.3766 53.5869 49.1435 52.3252 44.6189V44.6189C51.5455 41.823 52.8096 38.8585 55.3651 37.4823V37.4823C59.7282 35.1327 59.7282 28.8673 55.3651 26.5177V26.5177C52.8096 25.1415 51.5455 22.177 52.3252 19.3811V19.3811C53.5869 14.8565 49.5621 10.6234 44.9796 11.6554L43.4499 11.9999C40.5635 12.6499 37.5702 11.4468 35.9288 8.98524V8.98524C33.0835 4.71816 26.8022 4.70188 23.957 8.96896L21.2164 13.0789" stroke="#161251" stroke-width="1.90476" stroke-linecap="round"/>
<path d="M38.9481 31.9999C38.9481 26.5151 34.4825 22.0688 28.974 22.0688C26.4195 22.0688 24.0893 23.0251 22.3247 24.5976C20.2842 26.416 19 29.0586 19 31.9999C19 37.4846 23.4655 41.9309 28.974 41.9309" stroke="#161251" stroke-width="1.8" stroke-linecap="round"/>
<defs>
<linearGradient id="paint0_linear" x1="48.8727" y1="64" x2="-9.89106" y2="21.8401" gradientUnits="userSpaceOnUse">
<stop stop-color="#0087FC" stop-opacity="0.48"/>
<stop offset="1" stop-color="#0087FC" stop-opacity="0.2"/>
</linearGradient>
</defs>
</svg>
