<svg width="78" height="78" viewBox="0 0 78 78" fill="none" xmlns="http://www.w3.org/2000/svg">
<path d="M39 14.1615C47.8549 14.2319 56.0223 18.9474 60.5108 26.5808C64.8773 34.2845 64.8773 43.7155 60.5108 51.4192C56.0223 59.0526 47.8549 63.7681 39 63.8385C30.1451 63.7681 21.9777 59.0526 17.4892 51.4192C13.1227 43.7155 13.1227 34.2845 17.4892 26.5808C21.9777 18.9474 30.1451 14.2319 39 14.1615Z" fill="url(#paint0_linear)"/>
<path d="M38.7133 52.8174L51.3919 40.4763C52.1804 39.7088 52.2008 38.4483 51.4374 37.6557L38.5425 24.2674" stroke="#161251" stroke-width="2" stroke-linecap="round"/>
<path d="M26.9517 9.99243L14.2731 22.3335C13.4845 23.101 13.4642 24.3615 14.2276 25.1541L27.1225 38.5424" stroke="#161251" stroke-width="2" stroke-linecap="round"/>
<defs>
<linearGradient id="paint0_linear" x1="49.45" y1="78" x2="14.6207" y2="1.014" gradientUnits="userSpaceOnUse">
<stop stop-color="#0087FC" stop-opacity="0.48"/>
<stop offset="1" stop-color="#0087FC" stop-opacity="0.2"/>
</linearGradient>
</defs>
</svg>
