<svg width="60" height="60" viewBox="0 0 60 60" fill="none" xmlns="http://www.w3.org/2000/svg">
<path d="M34 24.8183C34 38.6364 22 47 19 47C16 47 4 38.6364 4 24.8183C4 16.7851 14.5 15 19 15C23.5 15 34 16.7851 34 24.8183Z" fill="url(#paint0_linear)"/>
<path d="M13 29.0456C13 25.4377 14.785 22.95 17.2353 21.2632C18.9239 20.1008 20.9284 19.3186 22.8824 18.8123C25.1951 18.213 27.4369 18 29 18C33.8 18 45 20.0082 45 29.0456C45 44.591 32.2 54 29 54C27.1538 54 22.1119 50.868 18.1765 45.2325C17.6317 44.4524 17.1082 43.6243 16.6172 42.75" stroke="#161251" stroke-width="1.8" stroke-linecap="round"/>
<path d="M37 32.5228C37 40.2955 30.6 45 29 45C28.0769 45 25.556 43.434 23.5882 40.6162C23.3159 40.2262 23.0541 39.8122 22.8086 39.375C22.4929 38.8127 22.2041 38.2121 21.9545 37.575C21.3701 36.0835 21 34.3919 21 32.5228C21 30.7188 21.8925 29.475 23.1176 28.6316C23.9619 28.0504 24.9642 27.6593 25.9412 27.4061C27.0975 27.1065 28.2184 27 29 27C31.4 27 37 28.0041 37 32.5228Z" stroke="#161251" stroke-width="1.8"/>
<defs>
<linearGradient id="paint0_linear" x1="34" y1="47" x2="-3.61956" y2="21.6968" gradientUnits="userSpaceOnUse">
<stop stop-color="#0087FC" stop-opacity="0.48"/>
<stop offset="1" stop-color="#0087FC" stop-opacity="0.2"/>
</linearGradient>
</defs>
</svg>
