<svg width="36" height="36" viewBox="0 0 36 36" fill="none" xmlns="http://www.w3.org/2000/svg">
<path fill-rule="evenodd" clip-rule="evenodd" d="M5.98574 25.1871C4.72502 23.0857 4 20.6269 4 18C4 10.2732 10.2732 4 18 4C25.7268 4 32 10.2732 32 18C32 25.7268 25.7268 32 18 32C15.9123 32 13.9306 31.5421 12.1502 30.7211L7.29732 31.4867C7.22596 31.4993 7.15271 31.5058 7.0781 31.5058C7.04712 31.5058 7.01641 31.5047 6.98588 31.5024L6.98056 31.5021L6.97938 31.502C6.30819 31.4502 5.79037 30.877 5.81368 30.1978L5.98574 25.1871ZM12.956 28.3037C14.4786 29.0511 16.1907 29.471 18 29.471C24.331 29.471 29.471 24.331 29.471 18C29.471 11.669 24.331 6.52903 18 6.52903C11.669 6.52903 6.52903 11.669 6.52903 18C6.52903 20.2526 7.17972 22.3544 8.30324 24.1275C8.45254 24.3433 8.53618 24.6071 8.52652 24.8892L8.39383 28.7534L12.1475 28.1613C12.4365 28.1157 12.7182 28.172 12.956 28.3037Z" fill="url(#paint0_linear)"/>
<path fill-rule="evenodd" clip-rule="evenodd" d="M19.0595 13.7344C20.1296 13.7344 20.9982 14.6032 20.9982 15.6732V16.2742L22.987 14.5017C23.2085 14.3042 23.5252 14.2553 23.7959 14.3767C24.0667 14.4981 24.241 14.767 24.241 15.0637C24.241 16.7314 24.241 19.2732 24.241 20.9409C24.241 21.2376 24.0667 21.5065 23.7959 21.6279C23.5252 21.7493 23.2085 21.7004 22.987 21.5029L20.9982 19.7304V20.3314C20.9982 21.4015 20.1295 22.2702 19.0595 22.2702H14.4016C13.3315 22.2702 12.4629 21.4015 12.4629 20.3314V15.6732C12.4629 14.6032 13.3315 13.7344 14.4016 13.7344H19.0595Z" fill="url(#paint1_linear)"/>
<defs>
<linearGradient id="paint0_linear" x1="6.13593" y1="31.0849" x2="26.0238" y2="6.52903" gradientUnits="userSpaceOnUse">
<stop stop-color="#FF952E"/>
<stop offset="0.43" stop-color="#F04886"/>
<stop offset="1" stop-color="#7747FF"/>
</linearGradient>
<linearGradient id="paint1_linear" x1="11.6767" y1="24.4152" x2="21.6122" y2="13.7344" gradientUnits="userSpaceOnUse">
<stop stop-color="#00FF58"/>
<stop offset="1" stop-color="#00D8FF"/>
</linearGradient>
</defs>
</svg>
