<svg width="36" height="36" viewBox="0 0 36 36" fill="none" xmlns="http://www.w3.org/2000/svg">
<path fill-rule="evenodd" clip-rule="evenodd" d="M6.57218 18C6.57218 11.6933 11.6933 6.57218 18 6.57218C24.3067 6.57218 29.4278 11.6933 29.4278 18C29.4278 20.9094 28.585 21.9453 28.0221 22.2925C27.4167 22.666 26.6289 22.5681 26.1162 22.2567C25.4129 21.8297 25.1454 20.8597 25.1454 20.0211V17.8699C25.1454 17.8361 25.1441 17.8026 25.1415 17.7695C25.0197 13.9319 21.8667 10.8545 17.9997 10.8545C14.0556 10.8545 10.8544 14.0558 10.8544 17.9999C10.8544 21.944 14.0557 25.1452 17.9997 25.1452C20.0764 25.1452 21.9472 24.2577 23.2532 22.8416C23.5854 23.4498 24.0724 24.025 24.7811 24.4553L24.7811 24.4553C25.9113 25.1416 27.7561 25.4789 29.3726 24.4816C31.0317 23.4581 32 21.3171 32 18C32 10.2728 25.7272 4 18 4C10.2727 4 4 10.2728 4 18C4 25.7273 10.2727 32 18 32C20.4039 32 22.6705 31.3918 24.6503 30.3204C25.275 29.9823 25.5073 29.2018 25.1692 28.5772C24.8312 27.9525 24.0507 27.7202 23.426 28.0582C21.8124 28.9315 19.9655 29.4278 18 29.4278C11.6933 29.4278 6.57218 24.3067 6.57218 18ZM13.4266 17.9999C13.4266 15.4764 15.4763 13.4267 17.9997 13.4267C20.5233 13.4267 22.573 15.4764 22.573 17.9999C22.573 20.5234 20.5233 22.5731 17.9997 22.5731C15.4762 22.5731 13.4266 20.5234 13.4266 17.9999Z" fill="url(#paint0_linear)"/>
<defs>
<linearGradient id="paint0_linear" x1="29.5771" y1="36.572" x2="11.4222" y2="3.35924" gradientUnits="userSpaceOnUse">
<stop offset="0.188728" stop-color="#FF5A9F"/>
<stop offset="0.61071" stop-color="#FF7A41"/>
<stop offset="1" stop-color="#FFD541"/>
</linearGradient>
</defs>
</svg>
