<svg width="36" height="36" viewBox="0 0 36 36" fill="none" xmlns="http://www.w3.org/2000/svg">
<path fill-rule="evenodd" clip-rule="evenodd" d="M20 16.0867V14.5591C20 13.7164 20.6842 13.0322 21.527 13.0322C22.3697 13.0322 23.0539 13.7164 23.0539 14.5591V16.0867H20Z" fill="#F57A3A" fill-opacity="0.5462"/>
<path fill-rule="evenodd" clip-rule="evenodd" d="M23.0541 7.53613H20.9761C20.1334 7.53613 19.4492 8.22022 19.4492 9.06301C19.4492 9.90568 20.1334 10.5899 20.9761 10.5899H23.0541V7.53613Z" fill="#2C9BBA" fill-opacity="0.3503"/>
<path fill-rule="evenodd" clip-rule="evenodd" d="M23.0541 25.4502H20.9761C20.1334 25.4502 19.4492 26.1344 19.4492 26.9771C19.4492 27.8198 20.1334 28.504 20.9761 28.504H23.0541V25.4502Z" fill="#2C9BBA" fill-opacity="0.3503"/>
<mask id="mask0" mask-type="alpha" maskUnits="userSpaceOnUse" x="25" y="8" width="10" height="20">
<path d="M30.0145 8.85547C32.3583 8.85547 34.2611 10.7583 34.2611 13.1021V22.8971C34.2611 25.2409 32.3583 27.1437 30.0145 27.1437H25.9411L26.54 24.0553H29.9616C30.63 24.0553 31.1727 23.5126 31.1727 22.8442V13.1551C31.1727 12.4866 30.6301 11.9439 29.9616 11.9439H26.8964L25.043 8.85547H30.0145Z" fill="white"/>
</mask>
<g mask="url(#mask0)">
<path fill-rule="evenodd" clip-rule="evenodd" d="M30.0145 8.85547C32.3583 8.85547 34.2611 10.7583 34.2611 13.1021V22.8971C34.2611 25.2409 32.3583 27.1437 30.0145 27.1437H25.9411L26.54 24.0553H29.9616C30.63 24.0553 31.1727 23.5126 31.1727 22.8442V13.1551C31.1727 12.4866 30.6301 11.9439 29.9616 11.9439H26.8964L25.043 8.85547H30.0145Z" fill="url(#paint0_linear)"/>
</g>
<mask id="mask1" mask-type="alpha" maskUnits="userSpaceOnUse" x="15" y="7" width="14" height="22">
<path d="M24.0909 7.43066C26.6223 7.43066 28.6773 9.48579 28.6773 12.017V23.9883C28.6773 26.5195 26.6221 28.5746 24.0909 28.5746H16.2772C14.2703 28.5746 21.4586 27.2829 20.8374 25.4862H24.0921C24.9181 25.4862 25.5888 24.8155 25.5888 23.9895V12.0158C25.5888 11.1898 24.9183 10.5192 24.0921 10.5191H20.5998C21.221 8.72246 14.2703 7.43066 16.2772 7.43066H24.0909Z" fill="white"/>
</mask>
<g mask="url(#mask1)">
<path fill-rule="evenodd" clip-rule="evenodd" d="M24.0909 7.43066C26.6223 7.43066 28.6773 9.48579 28.6773 12.017V23.9883C28.6773 26.5195 26.6221 28.5746 24.0909 28.5746H16.2772C14.2703 28.5746 21.4586 27.2829 20.8374 25.4862H24.0921C24.9181 25.4862 25.5888 24.8155 25.5888 23.9895V12.0158C25.5888 11.1898 24.9183 10.5192 24.0921 10.5191H20.5998C21.221 8.72246 14.2703 7.43066 16.2772 7.43066H24.0909Z" fill="url(#paint1_linear)"/>
</g>
<mask id="mask2" mask-type="alpha" maskUnits="userSpaceOnUse" x="1" y="6" width="23" height="24">
<path d="M18.2074 29.9996H5.88687C3.18973 29.9996 1 27.8098 1 25.1127V10.8869C1 8.18971 3.18967 6 5.88687 6H18.2074C20.9045 6 23.0942 8.18971 23.0942 10.8869V25.1127C23.0942 27.8098 20.9045 29.9996 18.2074 29.9996ZM20.0058 16.1016H4.08844V24.982C4.08844 26.044 4.95071 26.9063 6.01278 26.9063H18.0815C19.1435 26.9063 20.0058 26.044 20.0058 24.982V16.1016ZM18.0815 9.09319H6.01278C4.95064 9.09331 4.08844 9.95546 4.08844 11.0175V13.0131H20.0058V11.0175C20.0058 9.95546 19.1437 9.09331 18.0815 9.09319Z" fill="white"/>
</mask>
<g mask="url(#mask2)">
<path fill-rule="evenodd" clip-rule="evenodd" d="M18.2074 29.9996H5.88687C3.18973 29.9996 1 27.8098 1 25.1127V10.8869C1 8.18971 3.18967 6 5.88687 6H18.2074C20.9045 6 23.0942 8.18971 23.0942 10.8869V25.1127C23.0942 27.8098 20.9045 29.9996 18.2074 29.9996ZM20.0058 16.1016H4.08844V24.982C4.08844 26.044 4.95071 26.9063 6.01278 26.9063H18.0815C19.1435 26.9063 20.0058 26.044 20.0058 24.982V16.1016ZM18.0815 9.09319H6.01278C4.95064 9.09331 4.08844 9.95546 4.08844 11.0175V13.0131H20.0058V11.0175C20.0058 9.95546 19.1437 9.09331 18.0815 9.09319Z" fill="url(#paint2_linear)"/>
</g>
<defs>
<linearGradient id="paint0_linear" x1="24.5678" y1="19.0663" x2="32.9545" y2="19.0663" gradientUnits="userSpaceOnUse">
<stop stop-color="#250098"/>
<stop offset="1" stop-color="#8037D8"/>
</linearGradient>
<linearGradient id="paint1_linear" x1="14.0665" y1="18.0026" x2="27.7286" y2="18.0026" gradientUnits="userSpaceOnUse">
<stop stop-color="#1F00FF"/>
<stop offset="1" stop-color="#2B9AB9"/>
</linearGradient>
<linearGradient id="paint2_linear" x1="17.2681" y1="29.9996" x2="8.83256" y2="11.1015" gradientUnits="userSpaceOnUse">
<stop stop-color="#FF8C58"/>
<stop offset="1" stop-color="#FFCC1B"/>
</linearGradient>
</defs>
</svg>
