<svg width="36" height="36" viewBox="0 0 36 36" fill="none" xmlns="http://www.w3.org/2000/svg">
<path fill-rule="evenodd" clip-rule="evenodd" d="M30.5907 15.7271C31.8481 15.7271 32.8688 16.7455 32.8688 17.9999C32.8688 19.2543 31.8481 20.2727 30.5907 20.2727C29.3333 20.2727 28.3125 19.2543 28.3125 17.9999C28.3125 16.7455 29.3333 15.7271 30.5907 15.7271Z" fill="#08D0A9"/>
<mask id="mask0" mask-type="alpha" maskUnits="userSpaceOnUse" x="3" y="4" width="21" height="28">
<path d="M3.00003 18C2.99681 17.4284 3.263 16.8639 3.76478 16.5074L20.8956 4.33684C21.7146 3.755 22.853 3.94592 23.4362 4.763C24.0194 5.57996 23.828 6.71569 23.009 7.29753L7.94476 18L23.009 28.7024C23.828 29.2843 24.0194 30.42 23.4362 31.237C22.853 32.0541 21.7146 32.245 20.8956 31.6632L3.76478 19.4926C3.263 19.1361 2.99681 18.5716 3.00003 18Z" fill="white"/>
</mask>
<g mask="url(#mask0)">
<path fill-rule="evenodd" clip-rule="evenodd" d="M3.00003 18C2.99681 17.4284 3.263 16.8639 3.76478 16.5074L20.8956 4.33684C21.7146 3.755 22.853 3.94592 23.4362 4.763C24.0194 5.57996 23.828 6.71569 23.009 7.29753L7.94476 18L23.009 28.7024C23.828 29.2843 24.0194 30.42 23.4362 31.237C22.853 32.0541 21.7146 32.245 20.8956 31.6632L3.76478 19.4926C3.263 19.1361 2.99681 18.5716 3.00003 18Z" fill="url(#paint0_linear)"/>
</g>
<path fill-rule="evenodd" clip-rule="evenodd" d="M18.7521 9.92649C18.5016 9.61432 18.3516 9.21828 18.3516 8.78769C18.3516 7.78106 19.1708 6.96387 20.1798 6.96387C20.8466 6.96387 21.4305 7.32081 21.7498 7.85345C23.8684 10.6856 25.123 14.1978 25.123 18.0001C25.123 21.8364 23.8458 25.3775 21.6927 28.2227C21.3634 28.7043 20.8091 29.0208 20.1813 29.0208C19.1723 29.0208 18.3532 28.2035 18.3532 27.1969C18.3532 26.7208 18.5364 26.287 18.8364 25.9621C20.4957 23.7384 21.478 20.9828 21.478 18.0001C21.478 14.9673 20.4624 12.1693 18.7521 9.92649Z" fill="url(#paint1_linear)"/>
<defs>
<linearGradient id="paint0_linear" x1="13.3869" y1="33.0059" x2="13.3869" y2="-0.518213" gradientUnits="userSpaceOnUse">
<stop stop-color="#7525DA"/>
<stop offset="1" stop-color="#DC41B5"/>
</linearGradient>
<linearGradient id="paint1_linear" x1="21.7373" y1="6.96387" x2="21.7373" y2="29.0208" gradientUnits="userSpaceOnUse">
<stop stop-color="#FFBB58"/>
<stop offset="1" stop-color="#FF9B2B"/>
</linearGradient>
</defs>
</svg>
