<svg width="37" height="36" viewBox="0 0 37 36" fill="none" xmlns="http://www.w3.org/2000/svg">
<path fill-rule="evenodd" clip-rule="evenodd" d="M31.0907 15.7271C32.3481 15.7271 33.3688 16.7455 33.3688 17.9999C33.3688 19.2543 32.3481 20.2727 31.0907 20.2727C29.8333 20.2727 28.8125 19.2543 28.8125 17.9999C28.8125 16.7455 29.8333 15.7271 31.0907 15.7271Z" fill="#ED2346"/>
<mask id="mask0" mask-type="alpha" maskUnits="userSpaceOnUse" x="3" y="4" width="22" height="28">
<path d="M3.50003 18C3.49681 17.4284 3.763 16.8639 4.26478 16.5074L21.3956 4.33684C22.2146 3.755 23.353 3.94592 23.9362 4.763C24.5194 5.57996 24.328 6.71569 23.509 7.29753L8.44477 18L23.509 28.7024C24.328 29.2843 24.5194 30.42 23.9362 31.237C23.353 32.0541 22.2146 32.245 21.3956 31.6632L4.26478 19.4926C3.763 19.1361 3.49681 18.5716 3.50003 18Z" fill="white"/>
</mask>
<g mask="url(#mask0)">
<path fill-rule="evenodd" clip-rule="evenodd" d="M3.50003 18C3.49681 17.4284 3.763 16.8639 4.26478 16.5074L21.3956 4.33684C22.2146 3.755 23.353 3.94592 23.9362 4.763C24.5194 5.57996 24.328 6.71569 23.509 7.29753L8.44477 18L23.509 28.7024C24.328 29.2843 24.5194 30.42 23.9362 31.237C23.353 32.0541 22.2146 32.245 21.3956 31.6632L4.26478 19.4926C3.763 19.1361 3.49681 18.5716 3.50003 18Z" fill="url(#paint0_linear)"/>
</g>
<path fill-rule="evenodd" clip-rule="evenodd" d="M19.2521 9.92649C19.0016 9.61432 18.8516 9.21828 18.8516 8.78769C18.8516 7.78106 19.6708 6.96387 20.6798 6.96387C21.3466 6.96387 21.9305 7.32081 22.2498 7.85345C24.3684 10.6856 25.6231 14.1978 25.6231 18.0001C25.6231 21.8365 24.3458 25.3775 22.1927 28.2227C21.8634 28.7043 21.3091 29.0208 20.6813 29.0208C19.6723 29.0208 18.8532 28.2035 18.8532 27.1969C18.8532 26.7208 19.0364 26.287 19.3364 25.9621C20.9957 23.7384 21.978 20.9828 21.978 18.0001C21.978 14.9673 20.9624 12.1693 19.2521 9.92649Z" fill="url(#paint1_linear)"/>
<defs>
<linearGradient id="paint0_linear" x1="13.8869" y1="33.0059" x2="13.8869" y2="-0.518212" gradientUnits="userSpaceOnUse">
<stop stop-color="#1957CF"/>
<stop offset="1" stop-color="#3778F6"/>
</linearGradient>
<linearGradient id="paint1_linear" x1="22.2373" y1="6.96387" x2="22.2373" y2="29.0208" gradientUnits="userSpaceOnUse">
<stop stop-color="#2BED6D"/>
<stop offset="1" stop-color="#0DCD4F"/>
</linearGradient>
</defs>
</svg>
